# xmcd
#
# Track frame offsets: 
#        150
#        25112
#        43555
#        61160
#        75113
#        91706
#        114828
#        133393
#        155684
#        175991
#        192270
#        207818
#        232613
#        251652
#        271384
#        294799
#        311065
#        326872
#
# Disc length: 4732 seconds
#
# Revision: 1
# Processed by: cddbd v1.5.2PL0 Copyright (c) Steve Scherf et al.
# Submitted via: ExactAudioCopyFreeDBPlugin 1.0
#
DISCID=e8127a12
DTITLE=R. Kelly - The Essential R. Kellly
DYEAR=1900
DGENRE=R&B
TTITLE0=I Wish
TTITLE1=Feelin' On Yo Booty
TTITLE2=The World's Greatest (Radio Edit)
TTITLE3=Ignition (Remix)
TTITLE4=Thoia Thoing
TTITLE5=Step In The Name Of Love (Remix) [Radio Edit]
TTITLE6=Hotel (Cassidy Featuring R. Kelly)
TTITLE7=Happy People (Radio Edit)
TTITLE8=Wonderful (Ja Rule Featuring R. Kelly And Ashanti)
TTITLE9=In The Kitchen
TTITLE10=Trapped In The Closet (Chapter 1)
TTITLE11=I'm A Flirt (Remix) [Main Version] {Featuring T.I. and T-Pain}
TTITLE12=Same Girl (Duet with Usher)
TTITLE13=Number One (Featuring Keri Hilson)
TTITLE14=When A Woman Loves
TTITLE15=Love Letter (Radio Edit)
TTITLE16=Feelin' Single
TTITLE17=U Saved Me
EXTD=
EXTT0=
EXTT1=
EXTT2=
EXTT3=
EXTT4=
EXTT5=
EXTT6=
EXTT7=
EXTT8=
EXTT9=
EXTT10=
EXTT11=
EXTT12=
EXTT13=
EXTT14=
EXTT15=
EXTT16=
EXTT17=
PLAYORDER=
